<svg width="1920" height="292" viewBox="0 0 1920 292" fill="none" xmlns="http://www.w3.org/2000/svg">
<path fill-rule="evenodd" clip-rule="evenodd" d="M0 292L64 259.556C128 227.111 256 162.222 384 105.444C512 48.6667 640 0 768 0C896 0 1024 48.6667 1152 81.1111C1280 113.556 1408 129.778 1536 113.556C1664 97.3333 1792 48.6667 1856 24.3333L1920 0V292H1856C1792 292 1664 292 1536 292C1408 292 1280 292 1152 292C1024 292 896 292 768 292C640 292 512 292 384 292C256 292 128 292 64 292H0Z" fill="#242424"/>
</svg>
